<svg xmlns="http://www.w3.org/2000/svg" viewBox="0 0 512 512" width="512" height="512">
  <!-- Background circle -->
  <circle cx="256" cy="256" r="240" fill="#4F46E5" />
  
  <!-- Music note -->
  <g transform="translate(120, 100)">
    <path d="M80 120v160c-8.8-12.2-23.3-20-40-20-26.5 0-48 21.5-48 48s21.5 48 48 48 48-21.5 48-48V160l96-32V80L80 120z" fill="white"/>
    <ellipse cx="136" cy="112" rx="48" ry="16" fill="white"/>
  </g>
  
  <!-- Arrow -->
  <g transform="translate(256, 256)">
    <path d="M-20 -40 L20 -40 L20 -20 L50 0 L20 20 L20 40 L-20 40 L-20 20 L-50 20 L-50 -20 L-20 -20 Z" fill="white"/>
  </g>
  
  <!-- MP3 text -->
  <text x="256" y="380" font-family="Arial, sans-serif" font-size="64" font-weight="bold" text-anchor="middle" fill="white">MP3</text>
</svg>